<svg xmlns="http://www.w3.org/2000/svg" viewBox="0 0 630 630"><path d="M0 0h630v630H0z" style="fill:#f7df1e"/><path d="m165.65 526.47 48.21-29.17c9.3 16.49 17.76 30.44 38.06 30.44 19.45 0 31.72-7.61 31.72-37.21v-201.3h59.2v202.14c0 61.32-35.94 89.23-88.38 89.23-47.36 0-74.86-24.53-88.81-54.13M375 520.13l48.21-27.91c12.69 20.72 29.18 35.95 58.36 35.95 24.53 0 40.17-12.27 40.17-29.18 0-20.3-16.07-27.49-43.13-39.33l-14.8-6.35c-42.72-18.18-71.05-41-71.05-89.23 0-44.4 33.83-78.23 86.69-78.23 37.64 0 64.71 13.11 84.16 47.36l-46.1 29.6c-10.15-18.18-21.14-25.37-38.06-25.37-17.33 0-28.33 11-28.33 25.37 0 17.77 11 25 36.37 35.95l14.8 6.35c50.32 21.56 78.66 43.55 78.66 93 0 53.29-41.87 82.46-98.11 82.46-55 0-90.5-26.21-107.84-60.47"/></svg>